<?xml version="1.0" encoding="iso-8859-1"?>
<!-- Generator: Adobe Illustrator 16.0.0, SVG Export Plug-In . SVG Version: 6.00 Build 0)  -->
<!DOCTYPE svg PUBLIC "-//W3C//DTD SVG 1.1//EN" "http://www.w3.org/Graphics/SVG/1.1/DTD/svg11.dtd">
<svg version="1.1" id="Capa_1" xmlns="http://www.w3.org/2000/svg" xmlns:xlink="http://www.w3.org/1999/xlink" x="0px" y="0px"
	 width="353.557px" height="353.557px" viewBox="0 0 353.557 353.557" style="enable-background:new 0 0 353.557 353.557;"
	 xml:space="preserve">
<g>
	<g>
		<g>
			<g>
				<path d="M117.559,92.816c18.255-2.564,37.575-3.861,57.388-3.861c20.819,0,40.892,1.396,59.681,4.146l0.907,0.129l9.523-9.538
					l-3.501-0.564c-21.028-3.408-43.433-5.141-66.611-5.141c-22.278,0-43.934,1.625-64.33,4.789l-3.549,0.559l9.604,9.593
					L117.559,92.816z"/>
			</g>
		</g>
		<g>
			<g>
				<path d="M267.463,88.439l-1.01-0.258l-9.097,9.052l3.206,0.762c38.905,9.206,64.054,24.602,64.054,39.242
					c0,9.052-10.058,18.852-27.688,27.1v-1.973h-10.971v6.509c-14.916,5.542-33.381,9.944-53.61,12.784v-1.831h-10.971v3.248
					c-14.874,1.609-30.493,2.433-46.436,2.433c-5.278,0-10.835-0.114-16.927-0.343v-5.345h-10.971v4.756
					c-23.569-1.459-45.072-4.737-63.993-9.73v-6.365H72.082v3.222c-28.943-9.259-46.801-22.361-46.801-34.458
					c0-14.952,25.961-30.535,66.158-39.704l3.228-0.729l-9.106-9.121l-1.009,0.246c-38.749,9.509-63.765,24.812-69.076,42.147h-1.15
					v159.062c0,18.182,21.023,34.905,57.77,45.967v5.656h10.968v-2.696c19.113,4.804,40.634,7.974,63.993,9.403v6.083h10.971v-5.507
					c6.127,0.229,11.688,0.343,16.927,0.343c15.901,0,31.501-0.823,46.435-2.408v2.654h10.971v-4.041
					c21.899-2.961,41.139-7.494,57.244-13.445h7.338v-2.948c19.978-8.503,32.689-18.98,36.965-30.402h1.67V138.738l-0.084-0.664
					c0.06-0.282,0.084-0.558,0.084-0.837C335.568,117.223,310.745,99.428,267.463,88.439z M147.054,195.564v140.944
					c-23.569-1.459-45.072-4.744-63.993-9.728v-140.62C102.168,190.965,123.689,194.136,147.054,195.564z M285.963,180.589v140.199
					c-14.916,5.537-33.38,9.944-53.61,12.791V192.694C252.721,189.932,270.723,185.86,285.963,180.589z"/>
			</g>
		</g>
		<g>
			<g>
				<path d="M203.554,120.198c-2.438,2.423-3.759,5.639-3.759,9.052s1.326,6.624,3.759,9.052c2.407,2.408,5.632,3.738,9.049,3.738
					s6.623-1.33,9.031-3.738c3.489-3.495,4.612-8.701,2.984-13.325L341.832,7.762L334.092,0l-117.22,117.229
					C212.225,115.604,206.958,116.788,203.554,120.198z"/>
			</g>
		</g>
		<g>
			<g>
				<path d="M131.928,138.762c2.411,2.417,5.621,3.744,9.052,3.744c3.417,0,6.62-1.327,9.031-3.744
					c2.429-2.429,3.756-5.638,3.756-9.052c0-3.417-1.327-6.62-3.756-9.043c-3.42-3.425-8.695-4.593-13.307-2.975L19.471,0.457
					l-7.747,7.758l117.223,117.223C127.316,130.067,128.437,135.271,131.928,138.762z"/>
			</g>
		</g>
	</g>
</g>
<g>
</g>
<g>
</g>
<g>
</g>
<g>
</g>
<g>
</g>
<g>
</g>
<g>
</g>
<g>
</g>
<g>
</g>
<g>
</g>
<g>
</g>
<g>
</g>
<g>
</g>
<g>
</g>
<g>
</g>
</svg>
